<mxfile host="app.diagrams.net" modified="2023-04-17T09:25:37.413Z" agent="5.0 (Macintosh; Intel Mac OS X 10_15_7) AppleWebKit/537.36 (KHTML, like Gecko) Chrome/112.0.0.0 Safari/537.36" etag="UT7kd_kL55GznUDnBKoE" version="16.6.4" type="github">
  <diagram id="35WCWhEe1TvRER2FrwXf" name="Page-1">
    <mxGraphModel dx="1018" dy="658" grid="1" gridSize="10" guides="1" tooltips="1" connect="1" arrows="1" fold="1" page="1" pageScale="1" pageWidth="827" pageHeight="1169" math="0" shadow="0">
      <root>
        <mxCell id="0" />
        <mxCell id="1" parent="0" />
        <mxCell id="L9mkiPI3SF6jLolHq3Hp-1" value="定时任务" style="shape=umlLifeline;perimeter=lifelinePerimeter;whiteSpace=wrap;html=1;container=1;collapsible=0;recursiveResize=0;outlineConnect=0;" vertex="1" parent="1">
          <mxGeometry x="100" y="20" width="100" height="1020" as="geometry" />
        </mxCell>
        <mxCell id="L9mkiPI3SF6jLolHq3Hp-3" value="" style="html=1;points=[];perimeter=orthogonalPerimeter;fillColor=#dae8fc;strokeColor=#6c8ebf;" vertex="1" parent="L9mkiPI3SF6jLolHq3Hp-1">
          <mxGeometry x="45" y="90" width="10" height="80" as="geometry" />
        </mxCell>
        <mxCell id="L9mkiPI3SF6jLolHq3Hp-13" value="" style="html=1;points=[];perimeter=orthogonalPerimeter;fillColor=#d5e8d4;strokeColor=#82b366;" vertex="1" parent="L9mkiPI3SF6jLolHq3Hp-1">
          <mxGeometry x="45" y="215" width="10" height="80" as="geometry" />
        </mxCell>
        <mxCell id="L9mkiPI3SF6jLolHq3Hp-21" value="" style="html=1;points=[];perimeter=orthogonalPerimeter;fillColor=#ffe6cc;strokeColor=#d79b00;" vertex="1" parent="L9mkiPI3SF6jLolHq3Hp-1">
          <mxGeometry x="45" y="350" width="10" height="80" as="geometry" />
        </mxCell>
        <mxCell id="L9mkiPI3SF6jLolHq3Hp-26" value="" style="html=1;points=[];perimeter=orthogonalPerimeter;fillColor=#fff2cc;strokeColor=#d6b656;" vertex="1" parent="L9mkiPI3SF6jLolHq3Hp-1">
          <mxGeometry x="45" y="500" width="10" height="140" as="geometry" />
        </mxCell>
        <mxCell id="L9mkiPI3SF6jLolHq3Hp-27" value="各个币种资产求和" style="edgeStyle=orthogonalEdgeStyle;html=1;align=left;spacingLeft=2;endArrow=block;rounded=0;entryX=1;entryY=0;" edge="1" parent="L9mkiPI3SF6jLolHq3Hp-1">
          <mxGeometry relative="1" as="geometry">
            <mxPoint x="52" y="490" as="sourcePoint" />
            <Array as="points">
              <mxPoint x="72" y="490" />
            </Array>
            <mxPoint x="52" y="510" as="targetPoint" />
          </mxGeometry>
        </mxCell>
        <mxCell id="L9mkiPI3SF6jLolHq3Hp-35" value="" style="html=1;points=[];perimeter=orthogonalPerimeter;fillColor=#f8cecc;strokeColor=#b85450;" vertex="1" parent="L9mkiPI3SF6jLolHq3Hp-1">
          <mxGeometry x="40" y="710" width="10" height="90" as="geometry" />
        </mxCell>
        <mxCell id="L9mkiPI3SF6jLolHq3Hp-36" value="对账验证通过后，将整个por的内容输出成csv文件" style="edgeStyle=orthogonalEdgeStyle;html=1;align=left;spacingLeft=2;endArrow=block;rounded=0;entryX=1;entryY=0;" edge="1" target="L9mkiPI3SF6jLolHq3Hp-35" parent="L9mkiPI3SF6jLolHq3Hp-1">
          <mxGeometry relative="1" as="geometry">
            <mxPoint x="45" y="690" as="sourcePoint" />
            <Array as="points">
              <mxPoint x="75" y="690" />
            </Array>
          </mxGeometry>
        </mxCell>
        <mxCell id="L9mkiPI3SF6jLolHq3Hp-44" value="" style="html=1;points=[];perimeter=orthogonalPerimeter;fillColor=#e1d5e7;strokeColor=#9673a6;" vertex="1" parent="L9mkiPI3SF6jLolHq3Hp-1">
          <mxGeometry x="45" y="830" width="10" height="80" as="geometry" />
        </mxCell>
        <mxCell id="L9mkiPI3SF6jLolHq3Hp-45" value="" style="edgeStyle=orthogonalEdgeStyle;rounded=0;orthogonalLoop=1;jettySize=auto;html=1;endArrow=none;" edge="1" parent="L9mkiPI3SF6jLolHq3Hp-1" source="L9mkiPI3SF6jLolHq3Hp-26" target="L9mkiPI3SF6jLolHq3Hp-44">
          <mxGeometry relative="1" as="geometry">
            <mxPoint x="150" y="520" as="sourcePoint" />
            <mxPoint x="149.5" y="960" as="targetPoint" />
          </mxGeometry>
        </mxCell>
        <mxCell id="L9mkiPI3SF6jLolHq3Hp-49" value="" style="html=1;points=[];perimeter=orthogonalPerimeter;fillColor=#60a917;fontColor=#ffffff;strokeColor=#2D7600;" vertex="1" parent="L9mkiPI3SF6jLolHq3Hp-1">
          <mxGeometry x="40" y="960" width="10" height="40" as="geometry" />
        </mxCell>
        <mxCell id="L9mkiPI3SF6jLolHq3Hp-50" value="por结束，并预警" style="edgeStyle=orthogonalEdgeStyle;html=1;align=left;spacingLeft=2;endArrow=block;rounded=0;entryX=1;entryY=0;" edge="1" target="L9mkiPI3SF6jLolHq3Hp-49" parent="L9mkiPI3SF6jLolHq3Hp-1">
          <mxGeometry relative="1" as="geometry">
            <mxPoint x="45" y="940" as="sourcePoint" />
            <Array as="points">
              <mxPoint x="75" y="940" />
            </Array>
          </mxGeometry>
        </mxCell>
        <mxCell id="L9mkiPI3SF6jLolHq3Hp-2" value="vault数据统计" style="shape=umlLifeline;perimeter=lifelinePerimeter;whiteSpace=wrap;html=1;container=1;collapsible=0;recursiveResize=0;outlineConnect=0;" vertex="1" parent="1">
          <mxGeometry x="300" y="20" width="100" height="1020" as="geometry" />
        </mxCell>
        <mxCell id="L9mkiPI3SF6jLolHq3Hp-10" value="" style="html=1;points=[];perimeter=orthogonalPerimeter;fillColor=#dae8fc;strokeColor=#6c8ebf;" vertex="1" parent="L9mkiPI3SF6jLolHq3Hp-2">
          <mxGeometry x="45" y="90" width="10" height="80" as="geometry" />
        </mxCell>
        <mxCell id="L9mkiPI3SF6jLolHq3Hp-11" value="vault 根据币种/金额统计地址" style="html=1;verticalAlign=bottom;endArrow=block;entryX=0;entryY=0;rounded=0;" edge="1" target="L9mkiPI3SF6jLolHq3Hp-10" parent="1" source="L9mkiPI3SF6jLolHq3Hp-1">
          <mxGeometry relative="1" as="geometry">
            <mxPoint x="320" y="110" as="sourcePoint" />
          </mxGeometry>
        </mxCell>
        <mxCell id="L9mkiPI3SF6jLolHq3Hp-12" value="返回地址" style="html=1;verticalAlign=bottom;endArrow=open;dashed=1;endSize=8;exitX=0;exitY=0.95;rounded=0;" edge="1" source="L9mkiPI3SF6jLolHq3Hp-10" parent="1" target="L9mkiPI3SF6jLolHq3Hp-1">
          <mxGeometry relative="1" as="geometry">
            <mxPoint x="320" y="186" as="targetPoint" />
          </mxGeometry>
        </mxCell>
        <mxCell id="L9mkiPI3SF6jLolHq3Hp-14" value="链上资产查询" style="shape=umlLifeline;perimeter=lifelinePerimeter;whiteSpace=wrap;html=1;container=1;collapsible=0;recursiveResize=0;outlineConnect=0;" vertex="1" parent="1">
          <mxGeometry x="500" y="20" width="100" height="1020" as="geometry" />
        </mxCell>
        <mxCell id="L9mkiPI3SF6jLolHq3Hp-16" value="" style="html=1;points=[];perimeter=orthogonalPerimeter;fillColor=#d5e8d4;strokeColor=#82b366;" vertex="1" parent="L9mkiPI3SF6jLolHq3Hp-14">
          <mxGeometry x="45" y="215" width="10" height="80" as="geometry" />
        </mxCell>
        <mxCell id="L9mkiPI3SF6jLolHq3Hp-17" value="通过 轻解析/oklink 查询指定高度地址余额" style="html=1;verticalAlign=bottom;endArrow=block;entryX=0;entryY=0;rounded=0;" edge="1" target="L9mkiPI3SF6jLolHq3Hp-16" parent="1" source="L9mkiPI3SF6jLolHq3Hp-1">
          <mxGeometry relative="1" as="geometry">
            <mxPoint x="505" y="235" as="sourcePoint" />
          </mxGeometry>
        </mxCell>
        <mxCell id="L9mkiPI3SF6jLolHq3Hp-18" value="返回地址余额" style="html=1;verticalAlign=bottom;endArrow=open;dashed=1;endSize=8;exitX=0;exitY=0.95;rounded=0;" edge="1" source="L9mkiPI3SF6jLolHq3Hp-16" parent="1" target="L9mkiPI3SF6jLolHq3Hp-1">
          <mxGeometry relative="1" as="geometry">
            <mxPoint x="505" y="311" as="targetPoint" />
          </mxGeometry>
        </mxCell>
        <mxCell id="L9mkiPI3SF6jLolHq3Hp-19" value="cefi签名验证" style="shape=umlLifeline;perimeter=lifelinePerimeter;whiteSpace=wrap;html=1;container=1;collapsible=0;recursiveResize=0;outlineConnect=0;" vertex="1" parent="1">
          <mxGeometry x="700" y="20" width="100" height="1020" as="geometry" />
        </mxCell>
        <mxCell id="L9mkiPI3SF6jLolHq3Hp-22" value="" style="html=1;points=[];perimeter=orthogonalPerimeter;fillColor=#ffe6cc;strokeColor=#d79b00;" vertex="1" parent="L9mkiPI3SF6jLolHq3Hp-19">
          <mxGeometry x="45" y="350" width="10" height="80" as="geometry" />
        </mxCell>
        <mxCell id="L9mkiPI3SF6jLolHq3Hp-23" value="通过kafka与cefi进行地址签名验证" style="html=1;verticalAlign=bottom;endArrow=block;entryX=0;entryY=0;rounded=0;" edge="1" target="L9mkiPI3SF6jLolHq3Hp-22" parent="1" source="L9mkiPI3SF6jLolHq3Hp-1">
          <mxGeometry relative="1" as="geometry">
            <mxPoint x="675" y="370" as="sourcePoint" />
          </mxGeometry>
        </mxCell>
        <mxCell id="L9mkiPI3SF6jLolHq3Hp-24" value="返回签名结果" style="html=1;verticalAlign=bottom;endArrow=open;dashed=1;endSize=8;exitX=0;exitY=0.95;rounded=0;" edge="1" source="L9mkiPI3SF6jLolHq3Hp-22" parent="1" target="L9mkiPI3SF6jLolHq3Hp-1">
          <mxGeometry relative="1" as="geometry">
            <mxPoint x="675" y="446" as="targetPoint" />
          </mxGeometry>
        </mxCell>
        <mxCell id="L9mkiPI3SF6jLolHq3Hp-28" value="数据组对账" style="shape=umlLifeline;perimeter=lifelinePerimeter;whiteSpace=wrap;html=1;container=1;collapsible=0;recursiveResize=0;outlineConnect=0;" vertex="1" parent="1">
          <mxGeometry x="900" y="20" width="100" height="1020" as="geometry" />
        </mxCell>
        <mxCell id="L9mkiPI3SF6jLolHq3Hp-30" value="" style="html=1;points=[];perimeter=orthogonalPerimeter;fillColor=#fff2cc;strokeColor=#d6b656;" vertex="1" parent="L9mkiPI3SF6jLolHq3Hp-28">
          <mxGeometry x="50" y="550" width="10" height="80" as="geometry" />
        </mxCell>
        <mxCell id="L9mkiPI3SF6jLolHq3Hp-31" value="将各个币种资产总和推送给数据组和资金侧对账" style="html=1;verticalAlign=bottom;endArrow=block;entryX=0;entryY=0;rounded=0;" edge="1" target="L9mkiPI3SF6jLolHq3Hp-30" parent="1">
          <mxGeometry relative="1" as="geometry">
            <mxPoint x="160" y="570" as="sourcePoint" />
          </mxGeometry>
        </mxCell>
        <mxCell id="L9mkiPI3SF6jLolHq3Hp-32" value="返回对账结果" style="html=1;verticalAlign=bottom;endArrow=open;dashed=1;endSize=8;exitX=0;exitY=0.95;rounded=0;" edge="1" source="L9mkiPI3SF6jLolHq3Hp-30" parent="1" target="L9mkiPI3SF6jLolHq3Hp-1">
          <mxGeometry relative="1" as="geometry">
            <mxPoint x="880" y="646" as="targetPoint" />
          </mxGeometry>
        </mxCell>
        <mxCell id="L9mkiPI3SF6jLolHq3Hp-37" value="por文件上传" style="shape=umlLifeline;perimeter=lifelinePerimeter;whiteSpace=wrap;html=1;container=1;collapsible=0;recursiveResize=0;outlineConnect=0;" vertex="1" parent="1">
          <mxGeometry x="1100" y="20" width="100" height="1020" as="geometry" />
        </mxCell>
        <mxCell id="L9mkiPI3SF6jLolHq3Hp-39" value="" style="html=1;points=[];perimeter=orthogonalPerimeter;fillColor=#f8cecc;strokeColor=#b85450;" vertex="1" parent="L9mkiPI3SF6jLolHq3Hp-37">
          <mxGeometry x="45" y="720" width="10" height="80" as="geometry" />
        </mxCell>
        <mxCell id="L9mkiPI3SF6jLolHq3Hp-40" value="文件上传到 OSS" style="html=1;verticalAlign=bottom;endArrow=block;entryX=0;entryY=0;rounded=0;" edge="1" target="L9mkiPI3SF6jLolHq3Hp-39" parent="1" source="L9mkiPI3SF6jLolHq3Hp-1">
          <mxGeometry relative="1" as="geometry">
            <mxPoint x="1075" y="740" as="sourcePoint" />
          </mxGeometry>
        </mxCell>
        <mxCell id="L9mkiPI3SF6jLolHq3Hp-41" value="返回文件url" style="html=1;verticalAlign=bottom;endArrow=open;dashed=1;endSize=8;exitX=0;exitY=0.95;rounded=0;" edge="1" source="L9mkiPI3SF6jLolHq3Hp-39" parent="1" target="L9mkiPI3SF6jLolHq3Hp-35">
          <mxGeometry relative="1" as="geometry">
            <mxPoint x="1075" y="816" as="targetPoint" />
          </mxGeometry>
        </mxCell>
        <mxCell id="L9mkiPI3SF6jLolHq3Hp-42" value="通知资金" style="shape=umlLifeline;perimeter=lifelinePerimeter;whiteSpace=wrap;html=1;container=1;collapsible=0;recursiveResize=0;outlineConnect=0;" vertex="1" parent="1">
          <mxGeometry x="1300" y="20" width="100" height="1020" as="geometry" />
        </mxCell>
        <mxCell id="L9mkiPI3SF6jLolHq3Hp-46" value="" style="html=1;points=[];perimeter=orthogonalPerimeter;fillColor=#e1d5e7;strokeColor=#9673a6;" vertex="1" parent="L9mkiPI3SF6jLolHq3Hp-42">
          <mxGeometry x="45" y="830" width="10" height="80" as="geometry" />
        </mxCell>
        <mxCell id="L9mkiPI3SF6jLolHq3Hp-47" value="将文件url推送给资金" style="html=1;verticalAlign=bottom;endArrow=block;entryX=0;entryY=0;rounded=0;" edge="1" target="L9mkiPI3SF6jLolHq3Hp-46" parent="1" source="L9mkiPI3SF6jLolHq3Hp-1">
          <mxGeometry relative="1" as="geometry">
            <mxPoint x="770" y="920" as="sourcePoint" />
          </mxGeometry>
        </mxCell>
        <mxCell id="L9mkiPI3SF6jLolHq3Hp-48" value="返回是否推送成功" style="html=1;verticalAlign=bottom;endArrow=open;dashed=1;endSize=8;exitX=0;exitY=0.95;rounded=0;" edge="1" source="L9mkiPI3SF6jLolHq3Hp-46" parent="1" target="L9mkiPI3SF6jLolHq3Hp-1">
          <mxGeometry relative="1" as="geometry">
            <mxPoint x="770" y="996" as="targetPoint" />
          </mxGeometry>
        </mxCell>
      </root>
    </mxGraphModel>
  </diagram>
</mxfile>
